<svg xmlns="http://www.w3.org/2000/svg" viewBox="0 0 500 500" width="500" height="500">
  <path fill="#f97316" d="M433.075949542162562,483.909506440373661c-22.707010328320393-88.248706799648971-122.743631527737307-142.288142927503941-208.689689088572777-110.382946184011416-22.542971217952072-66.349010531353088-69.620160492975629-123.207047913650058-130.201368433738025-157.772947648618356-2.670288116003576-1.525877765860969-5.4931638215985-2.212522230688592-8.277892336847799-2.212521320639098l-.074386608566783-.076293907612126c-8.789060964105374-.019547447857803-16.910547692988985,7.093433846956032-16.746512547697421,16.860010753856841.003839664610496,76.402650776391965,29.928249786400556,145.781481667115258,78.729680122796708,197.131096600931414-16.651143622177187,21.482469323194891-26.844004722981481,46.587944628131481-30.891389329246522,72.54409526571817l192.435230819415665-.00006288685654c-4.12273512252068-5.434987628191266-6.600382769218413-12.189860816280998-6.600385171012022-19.539350646005005-.000005844944098-17.8856818285185,14.49869750507969-32.3843946547413,32.383902496529117-32.384400499559888,17.885204991431237-.000005844788575,32.384871491820377,14.498697504940537,32.384877336764475,32.384379333464494.000002401771781,7.349489829693994-2.47764083000402,14.10436463716178-6.601326074422104,19.53935496025133l24.479861732168501-.000007999888112c17.50087430937856-.000005719189176,34.077637081165449-3.938685372011605,48.914897199665575-10.953917261229435-.402451049714728-1.70993761774389-.783921266720427-3.415583708674603-1.245500117236588-5.136488559802274Z"/>
  <path fill="#f97316" d="M385.406389062312883,0L114.59154095426311.000088500903075C51.303817074473045.00010918301632-.000020682116883,51.30493414573175,0,114.592658025532728l.000088500595666,270.813894433901623c.000016572612367,50.712576550300582,32.953287167669259,93.701335398431183,78.605673615655178,108.795121236609702,1.459118510398184-8.989333005853041,3.482812153795749-17.866132646607184,6.156911620650135-26.578423709212075.270843161784796-.907421041350972.54168632310575-1.816272593908252.825880924541707-2.718925268866769.524520251696231-1.622676736010362,1.094816866763722-3.232478886012359,1.661298784762039-4.84371154596829,3.406520813437965-9.935855235201416,7.484428312596719-19.612311321250672,12.428272052078682-28.943060811257965-44.933329867732027-57.10217866504172-69.347411020082291-127.288296523663121-69.347435003563078-200.67829066442664-.152597879074165-30.646795567191475,24.852730122045614-55.699823634555287,55.576296510904285-55.691250607531401l.228881795772395-.000000074793206c9.613035422524263-.000003141500201,19.111630782203065,2.555363636809489,27.503964852177887,7.323731639531616,22.575378639252449,12.799253376982961,43.569566540096275,28.660754963345425,62.484745533964087,46.78055761406722,3.164284694435992-18.764493590950224,8.186326643692155-37.490840823016697,15.329340005037011-55.897231071225178,4.615778992287233-11.900901214515216,20.48300869893319-14.304165255480257,28.532021758057454-4.386433572708484,36.436089140615877,44.681529324539952,58.706305842910297,99.680863897109703,63.537637942834408,157.395314470933045,5.571364444884239.202177098919492,11.106489321955451.556942073509163,16.559598314141112,1.193040948878661,1.268386664687569.142097033713981,2.529143947094781.317572665132502,3.795623271247678.483511553193239,1.308440990653253.177859801194245,2.628326061714688.327109374187785,3.928183993277344.530241543158809.202178929557704.030517506695105.406265204019292.050544597147564.608444133886223.082015777980814.00000000280852.00858306734608-.001907342681079.017166135321531-.001907339723402.026226039731228,75.145712162970085,11.976215406633855,136.478421627030912,65.801564336260526,159.369485410343259,136.743469455733248,19.931782977486364-20.617964779177782,32.21605052288578-48.674108584745227,32.216040411203721-79.616066350939036l-.000088500595666-270.813894433901623c-.000020682098693-63.287723879811892-51.304845645123351-114.592515310519957-114.592569524935243-114.592494628421264Z"/>
</svg>